<svg width="389" height="374" viewBox="0 0 389 374" fill="none" xmlns="http://www.w3.org/2000/svg">
<path d="M242.49 82.28C242.49 74.8 248.47 68.816 255.945 68.816C263.42 68.816 269.4 74.8 269.4 82.28C269.4 89.76 263.42 95.744 255.945 95.744C248.47 95.744 242.49 89.76 242.49 82.28ZM316.343 173.536C308.868 173.536 302.888 179.52 302.888 187C302.888 194.48 308.868 200.464 316.343 200.464C323.818 200.464 329.798 194.48 329.798 187C329.798 179.52 323.818 173.536 316.343 173.536ZM61.5942 187C61.5942 194.48 67.5742 200.464 75.0492 200.464C82.5242 200.464 88.5042 194.48 88.5042 187C88.5042 179.52 82.5242 173.536 75.0492 173.536C67.5742 173.536 61.5942 179.52 61.5942 187ZM13.455 164.859C20.9301 164.859 26.9101 158.875 26.9101 151.395C26.9101 143.915 20.9301 137.931 13.455 137.931C5.98002 137.931 0 143.915 0 151.395C0 158.875 5.98002 164.859 13.455 164.859ZM14.053 207.645C6.57802 207.645 0.598002 213.629 0.598002 221.109C0.598002 228.589 6.57802 234.573 14.053 234.573C21.5281 234.573 27.5081 228.589 27.5081 221.109C27.5081 213.629 21.5281 207.645 14.053 207.645ZM193.753 61.6352C201.228 61.6352 207.208 55.6512 207.208 48.1712C207.208 40.6912 201.228 34.7072 193.753 34.7072C186.277 34.7072 180.297 40.6912 180.297 48.1712C180.297 55.6512 186.277 61.6352 193.753 61.6352ZM135.746 26.928C143.221 26.928 149.201 20.944 149.201 13.464C149.201 5.984 143.221 0 135.746 0C128.271 0 122.291 5.984 122.291 13.464C122.291 20.944 128.271 26.928 135.746 26.928ZM75.9462 33.2112C68.4712 33.2112 62.4912 39.1952 62.4912 46.6752C62.4912 54.1552 68.4712 60.1392 75.9462 60.1392C83.4212 60.1392 89.4012 54.1552 89.4012 46.6752C89.4012 39.1952 83.4212 33.2112 75.9462 33.2112ZM72.3582 103.224C64.8832 103.224 58.9032 109.208 58.9032 116.688C58.9032 124.168 64.8832 130.152 72.3582 130.152C79.8332 130.152 85.8132 124.168 85.8132 116.688C85.8132 109.208 79.8332 103.224 72.3582 103.224ZM135.148 95.744C142.623 95.744 148.603 89.76 148.603 82.28C148.603 74.8 142.623 68.816 135.148 68.816C127.673 68.816 121.693 74.8 121.693 82.28C121.693 89.76 127.673 95.744 135.148 95.744ZM255.945 27.8256C263.42 27.8256 269.4 21.8416 269.4 14.3616C269.4 6.8816 263.42 0.8976 255.945 0.8976C248.47 0.8976 242.49 6.8816 242.49 14.3616C242.49 21.8416 248.47 27.8256 255.945 27.8256ZM316.343 60.4384C323.818 60.4384 329.798 54.4544 329.798 46.9744C329.798 39.4944 323.818 33.5104 316.343 33.5104C308.868 33.5104 302.888 39.4944 302.888 46.9744C302.888 54.4544 308.868 60.4384 316.343 60.4384ZM316.343 131.05C323.818 131.05 329.798 125.066 329.798 117.586C329.798 110.106 323.818 104.122 316.343 104.122C308.868 104.122 302.888 110.106 302.888 117.586C302.888 125.066 308.868 131.05 316.343 131.05ZM375.545 165.158C383.02 165.158 389 159.174 389 151.694C389 144.214 383.02 138.23 375.545 138.23C368.07 138.23 362.09 144.214 362.09 151.694C362.09 159.174 368.07 165.158 375.545 165.158ZM374.349 207.346C366.874 207.346 360.894 213.33 360.894 220.81C360.894 228.29 366.874 234.274 374.349 234.274C381.824 234.274 387.804 228.29 387.804 220.81C387.804 213.33 381.824 207.346 374.349 207.346ZM255.945 278.256C248.47 278.256 242.49 284.24 242.49 291.72C242.49 299.2 248.47 305.184 255.945 305.184C263.42 305.184 269.4 299.2 269.4 291.72C269.4 284.24 263.42 278.256 255.945 278.256ZM193.753 312.365C186.277 312.365 180.297 318.349 180.297 325.829C180.297 333.309 186.277 339.293 193.753 339.293C201.228 339.293 207.208 333.309 207.208 325.829C207.208 318.349 201.228 312.365 193.753 312.365ZM135.746 347.072C128.271 347.072 122.291 353.056 122.291 360.536C122.291 368.016 128.271 374 135.746 374C143.221 374 149.201 368.016 149.201 360.536C149.201 353.056 143.221 347.072 135.746 347.072ZM75.9462 314.16C68.4712 314.16 62.4912 320.144 62.4912 327.624C62.4912 335.104 68.4712 341.088 75.9462 341.088C83.4212 341.088 89.4012 335.104 89.4012 327.624C89.4012 320.144 83.4212 314.16 75.9462 314.16ZM72.3582 270.776C79.8332 270.776 85.8132 264.792 85.8132 257.312C85.8132 249.832 79.8332 243.848 72.3582 243.848C64.8832 243.848 58.9032 249.832 58.9032 257.312C58.9032 264.792 64.8832 270.776 72.3582 270.776ZM135.148 304.885C142.623 304.885 148.603 298.901 148.603 291.421C148.603 283.941 142.623 277.957 135.148 277.957C127.673 277.957 121.693 283.941 121.693 291.421C121.693 298.901 127.673 304.885 135.148 304.885ZM255.945 346.174C248.47 346.174 242.49 352.158 242.49 359.638C242.49 367.118 248.47 373.102 255.945 373.102C263.42 373.102 269.4 367.118 269.4 359.638C269.4 352.158 263.42 346.174 255.945 346.174ZM316.343 313.562C308.868 313.562 302.888 319.546 302.888 327.026C302.888 334.506 308.868 340.49 316.343 340.49C323.818 340.49 329.798 334.506 329.798 327.026C329.798 319.546 323.818 313.562 316.343 313.562ZM316.343 242.95C308.868 242.95 302.888 248.934 302.888 256.414C302.888 263.894 308.868 269.878 316.343 269.878C323.818 269.878 329.798 263.894 329.798 256.414C329.798 248.934 323.818 242.95 316.343 242.95ZM195.547 163.064C182.39 163.064 171.925 173.536 171.925 186.701C171.925 199.866 182.39 210.338 195.547 210.338C208.703 210.338 219.168 199.866 219.168 186.701C219.168 173.536 208.703 163.064 195.547 163.064ZM195.248 141.821C208.404 141.821 218.869 131.349 218.869 118.184C218.869 105.019 208.404 94.5472 195.248 94.5472C182.091 94.5472 171.626 105.019 171.626 118.184C171.626 131.349 182.091 141.821 195.248 141.821ZM256.842 129.254C243.686 129.254 233.221 139.726 233.221 152.891C233.221 166.056 243.686 176.528 256.842 176.528C269.998 176.528 280.463 166.056 280.463 152.891C280.463 139.726 269.998 129.254 256.842 129.254ZM255.646 197.472C242.49 197.472 232.025 207.944 232.025 221.109C232.025 234.274 242.49 244.746 255.646 244.746C268.802 244.746 279.267 234.274 279.267 221.109C279.267 207.944 268.802 197.472 255.646 197.472ZM195.248 232.478C182.091 232.478 171.626 242.95 171.626 256.115C171.626 269.28 182.091 279.752 195.248 279.752C208.404 279.752 218.869 269.28 218.869 256.115C218.869 242.95 208.404 232.478 195.248 232.478ZM134.849 198.07C121.693 198.07 111.228 208.542 111.228 221.707C111.228 234.872 121.693 245.344 134.849 245.344C148.005 245.344 158.47 234.872 158.47 221.707C158.47 208.542 148.005 198.07 134.849 198.07ZM135.447 128.058C122.291 128.058 111.826 138.53 111.826 151.694C111.826 164.859 122.291 175.331 135.447 175.331C148.603 175.331 159.068 164.859 159.068 151.694C159.068 138.53 148.603 128.058 135.447 128.058Z" fill="#F45F31"/>
</svg>
