<svg width="556" height="114" viewBox="0 0 556 114" fill="none" xmlns="http://www.w3.org/2000/svg">
<g clip-path="url(#clip0_24_13)">
<path d="M155.324 13.042H190.126C209.633 13.042 218.608 20.7028 218.608 35.4772C218.608 50.2516 212.106 53.3524 201.482 55.906V57.1828C215.952 58.8244 223.187 65.1172 223.187 77.338C223.187 89.5588 214.487 101.141 193.24 101.141H155.324V13.042ZM165.948 21.7972V52.8052H189.851C200.475 52.8052 208.168 48.5188 208.168 36.754C208.168 24.9892 203.131 21.7972 190.767 21.7972H165.948ZM165.948 61.1956V92.4772H192.782C206.336 92.4772 212.564 86.002 212.564 76.7908C212.564 67.5796 207.252 61.1956 191.957 61.1956H166.039H165.948Z" fill="#F1F3F5"/>
<path d="M277.129 64.3876H256.34V101.141H245.533V13.042H279.877C301.582 13.042 310.74 22.618 310.74 38.3044C310.74 53.9908 302.956 61.1956 288.028 63.7492L315.869 99.5908V101.232H303.597L277.038 64.4788L277.129 64.3876ZM256.34 22.2532V55.1764H278.869C292.332 55.1764 300.117 49.6132 300.117 38.3956C300.117 27.178 294.988 22.2532 278.869 22.2532H256.34Z" fill="#F1F3F5"/>
<path d="M339.223 101.141V13.042H349.846V101.141H339.223Z" fill="#F1F3F5"/>
<path d="M407.36 53.9908C401.316 44.3236 395.455 32.5588 390.967 22.9828H387.578C388.494 35.2948 388.861 52.8052 388.861 66.0292V101.141H378.512V13.042H394.447L420.274 54.4468C427.692 66.6676 434.744 79.9828 439.14 89.3764H442.07C441.338 77.6116 440.788 61.1956 440.788 48.154V13.042H450.954V101.141H436.667L407.36 53.9908Z" fill="#F1F3F5"/>
<path d="M554.992 43.594L544.918 45.7828C541.255 29.002 532.097 20.9764 515.978 20.9764C493.082 20.9764 484.29 35.6596 484.29 58.0948C484.29 80.53 484.474 63.658 484.84 66.2116H474.033C473.758 63.658 473.575 60.922 473.575 58.0948C473.575 30.1876 487.771 11.4004 515.887 11.4004C544.002 11.4004 551.329 23.6212 554.992 43.594ZM516.344 56.9092V66.1204H540.339L503.798 102.509H517.993L546.017 74.602V101.05H556V56.818H516.344V56.9092Z" fill="#F1F3F5"/>
<g clip-path="url(#clip1_24_13)">
<path d="M59.3139 70.8587C63.3127 70.5589 66.7994 73.5393 67.1033 77.517C67.4073 81.4949 64.4136 84.9652 60.4151 85.2705C56.4128 85.5757 52.9202 82.594 52.616 78.6125C52.3117 74.631 55.3112 71.1586 59.3139 70.8587Z" fill="#F55F32"/>
<path d="M59.2241 49.7166C63.2217 49.3163 66.7867 52.2202 67.1809 56.1977C67.575 60.1752 64.6487 63.7157 60.6495 64.0997C56.6618 64.4826 53.1151 61.5818 52.7221 57.6157C52.3291 53.6496 55.238 50.1156 59.2241 49.7166Z" fill="#F55F32"/>
<path d="M40.6798 39.0598C44.6775 38.5929 48.2947 41.4488 48.7453 45.4279C49.1959 49.4068 46.308 52.9918 42.3061 53.4213C38.3304 53.8481 34.7556 50.9984 34.308 47.0457C33.8604 43.0929 36.7083 39.5235 40.6798 39.0598Z" fill="#F55F32"/>
<path d="M40.7358 60.3764C44.7217 60.0428 48.2287 62.9775 48.5808 66.9411C48.9328 70.9048 45.9974 74.4057 42.0145 74.7726C38.0078 75.1417 34.4629 72.2005 34.1087 68.2132C33.7546 64.226 36.7261 60.712 40.7358 60.3764Z" fill="#F55F32"/>
<path d="M78.078 39.4059C82.066 39.0406 85.5987 41.9549 85.9759 45.921C86.3531 49.8871 83.4326 53.4086 79.446 53.7937C75.4462 54.1803 71.8908 51.2623 71.5123 47.2821C71.1337 43.3021 74.0759 39.7725 78.078 39.4059Z" fill="#F55F32"/>
<path d="M59.6245 28.7998C63.6288 28.6702 66.9825 31.7902 67.1204 35.7732C67.2583 39.7564 64.1283 43.0985 60.1245 43.2432C56.11 43.3883 52.7393 40.2645 52.6011 36.2707C52.4628 32.2768 55.6095 28.9298 59.6245 28.7998Z" fill="#F55F32"/>
<path d="M77.73 60.199C81.721 59.8443 85.2465 62.7709 85.6103 66.7401C85.9741 70.7092 83.0385 74.2219 79.0491 74.591C75.0496 74.9609 71.5075 72.0315 71.1428 68.0523C70.778 64.073 73.7292 60.5547 77.73 60.199Z" fill="#F55F32"/>
<path d="M21.6684 74.3411C23.9404 74.0573 26.0126 75.6615 26.294 77.922C26.5756 80.1827 24.9594 82.2408 22.6866 82.5177C20.4192 82.7931 18.3556 81.1897 18.0748 78.9349C17.794 76.6797 19.4019 74.6243 21.6684 74.3411Z" fill="#F55F32"/>
<path d="M22.5385 52.9049C24.8071 52.6471 26.8575 54.2647 27.1218 56.5208C27.3861 58.7771 25.7646 60.8203 23.4971 61.0882C21.2224 61.3571 19.1606 59.7378 18.8954 57.4745C18.6303 55.2111 20.2627 53.1635 22.5385 52.9049Z" fill="#F55F32"/>
<path d="M3.669 63.3268C4.73282 63.2338 5.68889 63.3666 6.59932 63.9589C7.52123 64.5667 8.15943 65.5171 8.3709 66.597C8.58474 67.7015 8.3429 68.8451 7.69984 69.7702C7.03695 70.7239 6.04567 71.2676 4.91417 71.468C3.93216 71.5907 2.9109 71.4023 2.07318 70.8681C1.14368 70.2719 0.493059 69.3302 0.266746 68.2534C0.0362463 67.1638 0.252739 66.0277 0.868117 65.0977C1.5386 64.08 2.49803 63.5718 3.669 63.3268Z" fill="#F55F32"/>
<path d="M96.5029 52.9065C98.7662 52.6416 100.819 54.2461 101.097 56.4965C101.374 58.7468 99.7706 60.7969 97.5096 61.0832C95.2336 61.3716 93.1561 59.7637 92.8769 57.4981C92.5977 55.2326 94.2237 53.1733 96.5029 52.9065Z" fill="#F55F32"/>
<path d="M77.9611 20.9905C80.2271 20.7119 82.2927 22.3112 82.5766 24.5651C82.8613 26.8191 81.2575 28.8765 78.9924 29.1637C76.7211 29.4517 74.646 27.851 74.3608 25.591C74.0756 23.331 75.6887 21.2699 77.9611 20.9905Z" fill="#F55F32"/>
<path d="M22.6236 10.1579C24.889 9.79357 27.0202 11.3317 27.375 13.587C27.7297 15.8424 26.1728 17.9546 23.9038 18.2961C21.651 18.6351 19.5462 17.0998 19.1939 14.8606C18.8417 12.6212 20.3744 10.5197 22.6236 10.1579Z" fill="#F55F32"/>
<path d="M21.7391 31.4715C24.0059 31.2275 26.0445 32.8527 26.299 35.1066C26.5534 37.3607 24.9279 39.395 22.6631 39.6572C20.3853 39.9208 18.3261 38.2926 18.0702 36.0258C17.8143 33.7589 19.4594 31.717 21.7391 31.4715Z" fill="#F55F32"/>
<path d="M96.3765 31.7652C98.6319 31.4309 100.736 32.9746 101.08 35.2177C101.424 37.4608 99.8783 39.5581 97.6252 39.908C95.3602 40.2598 93.2392 38.714 92.8936 36.4599C92.548 34.2058 94.1091 32.1013 96.3765 31.7652Z" fill="#F55F32"/>
<path d="M96.7053 74.0477C98.9734 73.8946 100.942 75.5893 101.114 77.8442C101.287 80.0991 99.599 82.0706 97.334 82.261C95.0422 82.453 93.0319 80.7505 92.8579 78.4693C92.6831 76.1881 94.4111 74.2026 96.7053 74.0477Z" fill="#F55F32"/>
<path d="M78.0428 84.821C80.2996 84.5889 82.3233 86.2072 82.5811 88.4487C82.8398 90.6909 81.2359 92.7223 78.9855 93.004C77.507 93.1888 76.0426 92.5697 75.151 91.3817C74.2594 90.1945 74.0782 88.6218 74.6766 87.2638C75.2749 85.9067 76.5605 84.9736 78.0428 84.821Z" fill="#F55F32"/>
<path d="M114.249 63.2187C116.521 62.932 118.596 64.5352 118.879 66.7962C119.161 69.0574 117.545 71.1171 115.271 71.3926C113.005 71.6672 110.943 70.0658 110.662 67.8126C110.38 65.5594 111.985 63.5045 114.249 63.2187Z" fill="#F55F32"/>
<path d="M22.8192 95.7698C25.0927 95.5133 27.1442 97.1403 27.4 99.4022C27.6558 101.664 26.0186 103.703 23.7448 103.955C21.4739 104.207 19.4272 102.581 19.1718 100.323C18.9164 98.0639 20.5489 96.0262 22.8192 95.7698Z" fill="#F55F32"/>
<path d="M77.7453 105.565C79.9903 105.169 82.1351 106.652 82.5424 108.884C82.9496 111.116 81.466 113.256 79.224 113.669C76.9697 114.085 74.8049 112.599 74.3954 110.356C73.9859 108.111 75.4879 105.964 77.7453 105.565Z" fill="#F55F32"/>
<path d="M96.409 95.5999C98.6716 95.2845 100.763 96.8524 101.084 99.1025C101.403 101.353 99.8293 103.436 97.5668 103.756C95.3018 104.076 93.2045 102.508 92.885 100.254C92.5647 98.0011 94.1432 95.9162 96.409 95.5999Z" fill="#F55F32"/>
<path d="M40.741 84.7672C42.2128 84.5186 43.7052 85.0772 44.6469 86.2298C45.5885 87.3824 45.8336 88.9496 45.2882 90.3319C44.7427 91.7142 43.4913 92.6976 42.0131 92.9053C39.7716 93.22 37.6915 91.6851 37.3437 89.4602C36.9958 87.2352 38.5092 85.1441 40.741 84.7672Z" fill="#F55F32"/>
<path d="M58.7034 95.255C60.9642 94.8702 63.1089 96.3871 63.4858 98.638C63.8628 100.888 62.3283 103.015 60.064 103.38C57.8143 103.742 55.6932 102.227 55.3186 99.9912C54.9442 97.7545 56.4571 95.6381 58.7034 95.255Z" fill="#F55F32"/>
<path d="M96.5732 10.218C98.8263 9.99405 100.842 11.6125 101.098 13.8508C101.354 16.0889 99.754 18.1161 97.508 18.4009C96.0276 18.5886 94.5598 17.969 93.6669 16.7793C92.7741 15.5896 92.5945 14.014 93.1964 12.6554C93.7974 11.2967 95.0881 10.3655 96.5732 10.218Z" fill="#F55F32"/>
<path d="M77.7729 0.316231C80.0263 -0.0665136 82.1655 1.44061 82.5498 3.6825C82.935 5.92439 81.4197 8.05209 79.1667 8.43493C76.9126 8.81776 74.7736 7.31063 74.3888 5.06869C74.004 2.82674 75.5192 0.698986 77.7729 0.316231Z" fill="#F55F32"/>
<path d="M58.6726 10.6278C60.9356 10.2244 63.0955 11.7325 63.4832 13.9868C63.8709 16.2409 62.3378 18.3776 60.0688 18.7455C57.8248 19.1092 55.706 17.6048 55.3226 15.3756C54.9392 13.1463 56.4348 11.0268 58.6726 10.6278Z" fill="#F55F32"/>
<path d="M40.9158 20.9928C43.1947 20.7068 45.2718 22.3212 45.5442 24.59C45.8166 26.8588 44.1799 28.9143 41.8974 29.1702C39.6363 29.4237 37.5934 27.8141 37.3235 25.5665C37.0538 23.3189 38.6582 21.276 40.9158 20.9928Z" fill="#F55F32"/>
<path d="M41.0661 114C39.7941 113.677 38.746 113.162 38.051 112.002C37.483 111.053 37.3533 109.854 37.6343 108.791C37.9067 107.75 38.5905 106.861 39.5306 106.328C40.5138 105.779 41.6764 105.642 42.7612 105.948C43.8418 106.251 44.7525 106.978 45.2848 107.961C45.7943 108.925 45.8984 110.05 45.5743 111.09C45.2459 112.141 44.5542 113.023 43.5657 113.527C43.126 113.75 42.6795 113.885 42.2009 114H41.0661Z" fill="#F55F32"/>
<path d="M41.0788 0H42.1343C42.6547 0.117364 43.1461 0.246003 43.6198 0.496531C44.5671 0.997614 45.2823 1.90203 45.5879 2.9211C45.9021 3.99481 45.7718 5.14891 45.2259 6.1265C44.6898 7.08623 43.7842 7.78756 42.7173 8.06906C41.6353 8.36008 40.4813 8.20776 39.5129 7.64628C38.5689 7.10344 37.8851 6.20454 37.6165 5.15328C37.3586 4.12921 37.485 2.9322 38.038 2.0221C38.7692 0.818542 39.7388 0.322844 41.0788 0Z" fill="#F55F32"/>
<path d="M119.177 46.8545C119.189 46.9096 119.195 46.9205 119.193 46.9854C119.177 47.6958 118.562 48.6531 118.07 49.15C117.294 49.9285 116.235 50.3616 115.133 50.3509C114.013 50.3487 112.94 49.8975 112.158 49.0992C111.396 48.3171 110.978 47.2655 110.996 46.1761C111.02 45.0971 111.469 43.999 112.259 43.2522C113.069 42.4935 114.15 42.0893 115.262 42.1297C116.371 42.1611 117.422 42.6318 118.18 43.4372C118.608 43.8949 119.255 44.915 119.194 45.5587C119.191 45.5879 119.186 45.6168 119.182 45.6459C119.292 45.9308 119.32 46.518 119.204 46.8036C119.197 46.8213 119.186 46.8376 119.177 46.8545Z" fill="#F55F32"/>
<path d="M0 45.6209C0.278485 44.3861 0.809325 43.3527 1.91279 42.6547C2.84017 42.068 4.03196 41.9014 5.09651 42.1517C6.18338 42.4063 7.11998 43.0885 7.69229 44.0423C8.25664 44.9736 8.41923 46.0922 8.14339 47.1444C7.86992 48.2368 7.15898 49.1702 6.17589 49.7276C5.21285 50.2789 4.03642 50.3941 2.97016 50.0943C1.91148 49.7973 1.01939 49.0854 0.498277 48.1218C0.248564 47.6641 0.107906 47.1821 0 46.675V45.6209Z" fill="#F55F32"/>
</g>
</g>
<defs>
<clipPath id="clip0_24_13">
<rect width="556" height="114" fill="white"/>
</clipPath>
<clipPath id="clip1_24_13">
<rect width="119.258" height="114" fill="white"/>
</clipPath>
</defs>
</svg>
