<svg width="345" height="71" viewBox="0 0 345 71" fill="none" xmlns="http://www.w3.org/2000/svg">
<g clip-path="url(#clip0_45_4)">
<path d="M96.3799 8.12207H117.974C130.079 8.12207 135.648 12.8933 135.648 22.0949C135.648 31.2965 131.613 33.2277 125.021 34.8181V35.6133C134 36.6357 138.489 40.5549 138.489 48.1661C138.489 55.7773 133.09 62.9909 119.906 62.9909H96.3799V8.12207ZM102.972 13.5749V32.8869H117.804C124.396 32.8869 129.169 30.2173 129.169 22.8901C129.169 15.5629 126.044 13.5749 118.372 13.5749H102.972ZM102.972 38.1125V57.5949H119.622C128.033 57.5949 131.897 53.5621 131.897 47.8253C131.897 42.0885 128.601 38.1125 119.111 38.1125H103.029H102.972Z" fill="#050B16"/>
<path d="M171.961 40.1005H159.061V62.9909H152.355V8.12207H173.666C187.134 8.12207 192.817 14.0861 192.817 23.8557C192.817 33.6253 187.986 38.1125 178.723 39.7029L195.999 62.0253V63.0477H188.384L171.904 40.1573L171.961 40.1005ZM159.061 13.8589V34.3637H173.041C181.394 34.3637 186.225 30.8989 186.225 23.9125C186.225 16.9261 183.042 13.8589 173.041 13.8589H159.061Z" fill="#050B16"/>
<path d="M210.489 62.9909V8.12207H217.081V62.9909H210.489Z" fill="#050B16"/>
<path d="M252.769 33.6253C249.018 27.6045 245.381 20.2773 242.597 14.3133H240.494C241.062 21.9813 241.29 32.8869 241.29 41.1229V62.9909H234.868V8.12207H244.756L260.782 33.9093C265.385 41.5205 269.76 49.8133 272.488 55.6637H274.306C273.852 48.3365 273.511 38.1125 273.511 29.9901V8.12207H279.819V62.9909H270.954L252.769 33.6253Z" fill="#050B16"/>
<path d="M344.375 27.15L338.124 28.5132C335.851 18.062 330.168 13.0636 320.167 13.0636C305.96 13.0636 300.504 22.2084 300.504 36.1812C300.504 50.154 300.618 39.646 300.845 41.2364H294.14C293.969 39.646 293.855 37.942 293.855 36.1812C293.855 18.8004 302.664 7.09961 320.11 7.09961C337.556 7.09961 342.102 14.7108 344.375 27.15ZM320.394 35.4428V41.1796H335.283L312.609 63.8428H321.417L338.806 46.462V62.934H345V35.386H320.394V35.4428Z" fill="#050B16"/>
<g clip-path="url(#clip1_45_4)">
<path d="M36.805 44.1311C39.2863 43.9444 41.4498 45.8006 41.6384 48.278C41.827 50.7554 39.9694 52.9168 37.4883 53.1069C35.0049 53.297 32.8377 51.4399 32.6489 48.9603C32.4601 46.4806 34.3213 44.3179 36.805 44.1311Z" fill="#F55F32"/>
<path d="M36.749 30.9634C39.2295 30.7141 41.4416 32.5227 41.6862 34.9999C41.9307 37.4771 40.1149 39.6821 37.6334 39.9213C35.1591 40.1598 32.9583 38.3531 32.7145 35.883C32.4706 33.4129 34.2756 31.2119 36.749 30.9634Z" fill="#F55F32"/>
<path d="M25.2422 24.327C27.7228 24.0363 29.9673 25.8149 30.2469 28.2931C30.5265 30.7713 28.7345 33.004 26.2513 33.2715C23.7844 33.5373 21.5662 31.7625 21.2885 29.3007C21.0108 26.8389 22.7779 24.6158 25.2422 24.327Z" fill="#F55F32"/>
<path d="M25.2764 37.603C27.7496 37.3953 29.9257 39.223 30.1442 41.6916C30.3626 44.1601 28.5412 46.3406 26.0698 46.569C23.5836 46.7989 21.384 44.9671 21.1643 42.4838C20.9445 40.0005 22.7883 37.812 25.2764 37.603Z" fill="#F55F32"/>
<path d="M48.4479 24.5417C50.9225 24.3142 53.1145 26.1292 53.3486 28.5993C53.5826 31.0694 51.7704 33.2627 49.2967 33.5026C46.8149 33.7433 44.6087 31.926 44.3739 29.4471C44.139 26.9683 45.9646 24.77 48.4479 24.5417Z" fill="#F55F32"/>
<path d="M36.9975 17.937C39.4822 17.8563 41.5632 19.7994 41.6487 22.2801C41.7343 24.7608 39.7921 26.8423 37.3078 26.9324C34.8168 27.0228 32.7252 25.0773 32.6394 22.5899C32.5536 20.1025 34.5062 18.0179 36.9975 17.937Z" fill="#F55F32"/>
<path d="M48.2313 37.4918C50.7077 37.2708 52.8953 39.0936 53.1211 41.5656C53.3468 44.0376 51.5253 46.2253 49.0498 46.4552C46.5681 46.6856 44.3702 44.8611 44.1439 42.3828C43.9176 39.9045 45.7488 37.7133 48.2313 37.4918Z" fill="#F55F32"/>
<path d="M13.4449 46.3005C14.8547 46.1238 16.1405 47.1229 16.3151 48.5307C16.4898 49.9387 15.487 51.2205 14.0767 51.393C12.6697 51.5645 11.3893 50.5659 11.2151 49.1616C11.0408 47.757 12.0385 46.4769 13.4449 46.3005Z" fill="#F55F32"/>
<path d="M13.9851 32.9494C15.3928 32.7889 16.665 33.7963 16.829 35.2014C16.993 36.6066 15.9869 37.8792 14.5799 38.046C13.1685 38.2135 11.8891 37.205 11.7245 35.7954C11.5601 34.3857 12.5729 33.1105 13.9851 32.9494Z" fill="#F55F32"/>
<path d="M2.27633 39.4406C2.93643 39.3827 3.52967 39.4654 4.0946 39.8343C4.66665 40.2128 5.06265 40.8048 5.19387 41.4774C5.32656 42.1652 5.1765 42.8775 4.77747 43.4536C4.36615 44.0476 3.75106 44.3862 3.04895 44.511C2.43962 44.5875 1.80592 44.4701 1.28611 44.1374C0.709356 43.7661 0.305641 43.1796 0.165213 42.509C0.0221871 41.8304 0.156522 41.1228 0.538366 40.5436C0.954405 39.9097 1.54973 39.5932 2.27633 39.4406Z" fill="#F55F32"/>
<path d="M59.8806 32.9504C61.285 32.7854 62.5589 33.7848 62.7312 35.1863C62.9029 36.5878 61.9083 37.8646 60.5053 38.0429C59.093 38.2225 57.8039 37.2211 57.6307 35.8101C57.4575 34.3991 58.4664 33.1165 59.8806 32.9504Z" fill="#F55F32"/>
<path d="M48.3754 13.0733C49.7814 12.8998 51.0632 13.8959 51.2393 15.2996C51.416 16.7034 50.4208 17.9848 49.0153 18.1637C47.6059 18.343 46.3183 17.3461 46.1414 15.9386C45.9644 14.531 46.9653 13.2473 48.3754 13.0733Z" fill="#F55F32"/>
<path d="M14.0383 6.32624C15.444 6.09933 16.7664 7.05726 16.9865 8.46192C17.2067 9.86659 16.2406 11.1821 14.8327 11.3947C13.4348 11.6059 12.1287 10.6497 11.9102 9.25508C11.6916 7.86041 12.6426 6.55154 14.0383 6.32624Z" fill="#F55F32"/>
<path d="M13.4891 19.601C14.8957 19.449 16.1606 20.4612 16.3186 21.865C16.4764 23.2688 15.4678 24.5359 14.0625 24.6991C12.6491 24.8633 11.3714 23.8493 11.2126 22.4375C11.0538 21.0256 12.0746 19.7539 13.4891 19.601Z" fill="#F55F32"/>
<path d="M59.8022 19.7842C61.2017 19.576 62.507 20.5374 62.7205 21.9344C62.9339 23.3314 61.9751 24.6376 60.577 24.8556C59.1716 25.0747 57.8555 24.112 57.6411 22.7081C57.4266 21.3042 58.3953 19.9935 59.8022 19.7842Z" fill="#F55F32"/>
<path d="M60.0062 46.1173C61.4136 46.022 62.635 47.0775 62.742 48.4818C62.8489 49.8861 61.8017 51.1141 60.3963 51.2326C58.9742 51.3522 57.7268 50.2919 57.6189 48.8711C57.5104 47.4504 58.5826 46.2138 60.0062 46.1173Z" fill="#F55F32"/>
<path d="M48.4261 52.8273C49.8264 52.6827 51.0822 53.6906 51.2421 55.0866C51.4026 56.4831 50.4074 57.7483 49.011 57.9237C48.0936 58.0388 47.1849 57.6532 46.6317 56.9133C46.0785 56.1739 45.966 55.1944 46.3373 54.3487C46.7086 53.5035 47.5063 52.9223 48.4261 52.8273Z" fill="#F55F32"/>
<path d="M70.8923 39.3732C72.3021 39.1946 73.5892 40.1931 73.7649 41.6013C73.9401 43.0095 72.9371 44.2923 71.5263 44.4639C70.1204 44.635 68.8411 43.6376 68.6664 42.2343C68.4917 40.831 69.4873 39.5512 70.8923 39.3732Z" fill="#F55F32"/>
<path d="M14.1594 59.6465C15.5701 59.4867 16.8431 60.5 17.0018 61.9087C17.1605 63.3175 16.1447 64.5875 14.7337 64.7443C13.3246 64.9011 12.0547 63.8888 11.8962 62.482C11.7377 61.0753 12.7507 59.8062 14.1594 59.6465Z" fill="#F55F32"/>
<path d="M48.2415 65.747C49.6345 65.5 50.9653 66.4241 51.2181 67.8142C51.4708 69.2043 50.5502 70.5366 49.159 70.7944C47.7602 71.0531 46.4169 70.128 46.1628 68.7305C45.9088 67.3326 46.8407 65.9954 48.2415 65.747Z" fill="#F55F32"/>
<path d="M59.8226 59.5408C61.2265 59.3443 62.5245 60.3208 62.7232 61.7222C62.9215 63.1241 61.9449 64.4211 60.541 64.6205C59.1356 64.82 57.8342 63.8434 57.636 62.4396C57.4372 61.0362 58.4167 59.7377 59.8226 59.5408Z" fill="#F55F32"/>
<path d="M25.2795 52.7931C26.1928 52.6383 27.1189 52.9862 27.7032 53.704C28.2875 54.4218 28.4395 55.3979 28.1011 56.2588C27.7626 57.1197 26.9861 57.7322 26.0689 57.8616C24.678 58.0576 23.3873 57.1016 23.1715 55.7159C22.9556 54.3302 23.8947 53.0278 25.2795 52.7931Z" fill="#F55F32"/>
<path d="M36.4256 59.3252C37.8285 59.0856 39.1592 60.0303 39.3931 61.4322C39.627 62.8336 38.6749 64.158 37.2699 64.3854C35.8739 64.6113 34.5577 63.6676 34.3253 62.275C34.093 60.8819 35.0318 59.5639 36.4256 59.3252Z" fill="#F55F32"/>
<path d="M59.9239 6.36347C61.322 6.22402 62.5728 7.23203 62.7313 8.62602C62.8903 10.0199 61.8976 11.2825 60.5039 11.4598C59.5853 11.5768 58.6745 11.1909 58.1205 10.4499C57.5665 9.709 57.4551 8.72769 57.8286 7.88152C58.2015 7.03535 59.0023 6.45535 59.9239 6.36347Z" fill="#F55F32"/>
<path d="M48.258 0.197148C49.6562 -0.0412281 50.9836 0.897417 51.2221 2.29369C51.4611 3.68995 50.5209 5.0151 49.1228 5.25353C47.7242 5.49196 46.3969 4.55331 46.1582 3.15701C45.9194 1.76071 46.8595 0.43553 48.258 0.197148Z" fill="#F55F32"/>
<path d="M36.4069 6.6188C37.8111 6.36753 39.1513 7.30679 39.3919 8.71077C39.6325 10.1147 38.6812 11.4454 37.2732 11.6745C35.8808 11.9011 34.5661 10.9641 34.3282 9.57576C34.0903 8.18736 35.0183 6.86727 36.4069 6.6188Z" fill="#F55F32"/>
<path d="M25.389 13.0742C26.803 12.896 28.0919 13.9015 28.2609 15.3146C28.4299 16.7275 27.4144 18.0078 25.9981 18.1671C24.595 18.325 23.3274 17.3225 23.16 15.9227C22.9926 14.5229 23.9881 13.2506 25.389 13.0742Z" fill="#F55F32"/>
<path d="M25.4819 71.0004C24.6926 70.799 24.0423 70.4786 23.611 69.7558C23.2586 69.1649 23.1781 68.4181 23.3524 67.7562C23.5215 67.1074 23.9458 66.5542 24.5291 66.222C25.1392 65.88 25.8606 65.7947 26.5337 65.9853C27.2043 66.174 27.7693 66.6267 28.0996 67.2392C28.4157 67.8395 28.4804 68.5401 28.2793 69.1879C28.0755 69.8425 27.6463 70.3918 27.0329 70.7054C26.7601 70.8446 26.483 70.9284 26.1861 71.0004H25.4819Z" fill="#F55F32"/>
<path d="M25.4897 0H26.1446C26.4675 0.0730952 26.7724 0.153213 27.0663 0.309243C27.6542 0.621321 28.098 1.1846 28.2876 1.81928C28.4825 2.48799 28.4017 3.20678 28.0629 3.81563C27.7303 4.41335 27.1683 4.85015 26.5064 5.02547C25.835 5.20672 25.1189 5.11185 24.518 4.76216C23.9323 4.42407 23.5079 3.86423 23.3413 3.2095C23.1813 2.5717 23.2597 1.82619 23.6028 1.25938C24.0565 0.509794 24.6582 0.20107 25.4897 0Z" fill="#F55F32"/>
<path d="M73.9498 29.1817C73.9577 29.216 73.9611 29.2227 73.9601 29.2632C73.9498 29.7056 73.5685 30.3019 73.2628 30.6113C72.7814 31.0961 72.1244 31.3659 71.4408 31.3592C70.7455 31.3578 70.08 31.0768 69.5947 30.5797C69.1217 30.0926 68.8626 29.4376 68.8734 28.7592C68.8886 28.0871 69.1668 27.4033 69.6575 26.9381C70.16 26.4656 70.8308 26.2138 71.5208 26.239C72.2088 26.2586 72.8609 26.5517 73.3315 27.0533C73.597 27.3384 73.9984 27.9737 73.9606 28.3746C73.9587 28.3928 73.9557 28.4108 73.9533 28.4289C74.021 28.6064 74.0386 28.9721 73.9665 29.15C73.9621 29.161 73.9552 29.1711 73.9498 29.1817Z" fill="#F55F32"/>
<path d="M0 28.4134C0.172801 27.6444 0.502189 27.0008 1.18689 26.566C1.76233 26.2007 2.50184 26.0969 3.16241 26.2527C3.83681 26.4114 4.41797 26.8362 4.77309 27.4302C5.12327 28.0103 5.22416 28.7069 5.053 29.3623C4.88331 30.0426 4.44217 30.6239 3.83216 30.9711C3.2346 31.3144 2.50462 31.3862 1.843 31.1995C1.18608 31.0145 0.632533 30.5711 0.309183 29.971C0.154235 29.6859 0.0669558 29.3858 0 29.0699V28.4134Z" fill="#F55F32"/>
</g>
</g>
<defs>
<clipPath id="clip0_45_4">
<rect width="345" height="71" fill="white"/>
</clipPath>
<clipPath id="clip1_45_4">
<rect width="74" height="71" fill="white"/>
</clipPath>
</defs>
</svg>
